<svg width="64" height="64" viewBox="0 0 64 64" xmlns="http://www.w3.org/2000/svg">
  <rect width="64" height="64" rx="15" fill="#0e1116" />
  <!-- ears -->
  <path d="M15 23 C8 19 7 28 13 31 C18 33 22 27 20 22 Z" fill="#e7e0d0" />
  <path d="M49 23 C56 19 57 28 51 31 C46 33 42 27 44 22 Z" fill="#e7e0d0" />
  <!-- horns -->
  <path d="M23 16 C20 10 25 8 26 13" stroke="#c8a35a" stroke-width="3" fill="none" stroke-linecap="round" />
  <path d="M41 16 C44 10 39 8 38 13" stroke="#c8a35a" stroke-width="3" fill="none" stroke-linecap="round" />
  <!-- head -->
  <path d="M18 26 C18 16 24 14 32 14 C40 14 46 16 46 26 L46 34 C46 46 40 51 32 51 C24 51 18 46 18 34 Z" fill="#f4efe4" />
  <!-- forelock -->
  <path d="M26 15 C28 20 36 20 38 15 C38 13 32 12 26 15 Z" fill="#d9cdb4" />
  <!-- eyes -->
  <circle cx="26" cy="29" r="3" fill="#23304a" />
  <circle cx="38" cy="29" r="3" fill="#23304a" />
  <!-- muzzle -->
  <ellipse cx="32" cy="41" rx="12.5" ry="8.5" fill="#c8a35a" />
  <!-- nostrils -->
  <ellipse cx="27" cy="41" rx="1.9" ry="3.1" fill="#4a3a1f" />
  <ellipse cx="37" cy="41" rx="1.9" ry="3.1" fill="#4a3a1f" />
</svg>
