<svg width="64" height="64" viewBox="0 0 64 64" xmlns="http://www.w3.org/2000/svg">
  <rect width="64" height="64" rx="15" fill="#0e1116" />
  <g transform="translate(8 10) scale(0.62)">
    <ellipse cx="17" cy="33" rx="9.5" ry="6.5" fill="#efe6d8" transform="rotate(-26 17 33)" />
    <ellipse cx="63" cy="33" rx="9.5" ry="6.5" fill="#efe6d8" transform="rotate(26 63 33)" />
    <ellipse cx="16" cy="34" rx="4.3" ry="2.8" fill="#e0a99d" transform="rotate(-26 16 34)" />
    <ellipse cx="64" cy="34" rx="4.3" ry="2.8" fill="#e0a99d" transform="rotate(26 64 34)" />
    <path d="M30 18 q-5 -5 -3 -11 q5 3 5 9 z" fill="#d9b876" />
    <path d="M50 18 q5 -5 3 -11 q-5 3 -5 9 z" fill="#d9b876" />
    <ellipse cx="40" cy="41" rx="25" ry="22.5" fill="#f6efe4" />
    <ellipse cx="29" cy="26" rx="10" ry="7" fill="#3a2f26" transform="rotate(-18 29 26)" />
    <path d="M37 16 q3 -5 6 0 q-1.5 4 -3 4 q-1.5 0 -3 -4 z" fill="#3a2f26" />
    <ellipse cx="40" cy="53" rx="15.5" ry="10.5" fill="#e7b8ac" />
    <ellipse cx="34" cy="53" rx="2" ry="2.7" fill="#9c6f64" />
    <ellipse cx="46" cy="53" rx="2" ry="2.7" fill="#9c6f64" />
    <ellipse cx="31" cy="39" rx="3.3" ry="3.9" fill="#2a2118" />
    <ellipse cx="49" cy="39" rx="3.3" ry="3.9" fill="#2a2118" />
    <circle cx="32.1" cy="37.7" r="1.05" fill="#fff" />
    <circle cx="50.1" cy="37.7" r="1.05" fill="#fff" />
    <path d="M35 57 q5 3 10 0" stroke="#9c6f64" stroke-width="1.5" fill="none" stroke-linecap="round" />
  </g>
</svg>
